<svg width="180" height="180" viewBox="0 0 180 180" fill="none" xmlns="http://www.w3.org/2000/svg">
<path d="M159 50.9796C155.311 50.9796 151.622 50.0684 148.444 48.2461C141.509 44.2694 133.498 42 124.965 42C116.432 42 108.422 44.2694 101.486 48.2461C95.1305 51.8907 86.7311 51.8907 80.3752 48.2461C73.4401 44.2694 65.4292 42 56.8962 42C48.3633 42 40.3524 44.2694 33.4173 48.2461C29.9918 50.2104 25.9728 51.116 22 50.963M159 80.0204C155.311 80.0204 151.622 79.1093 148.444 77.2869C141.509 73.3102 133.498 71.0408 124.965 71.0408C116.432 71.0408 108.422 73.3102 101.486 77.2869C95.1305 80.9316 86.7311 80.9316 80.3752 77.2869C73.4401 73.3102 65.4292 71.0408 56.8962 71.0408C48.3633 71.0408 40.3524 73.3102 33.4173 77.2869C29.9918 79.2512 25.9728 80.1568 22 80.0038M159 109.959C155.311 109.959 151.622 109.048 148.444 107.226C141.509 103.249 133.498 100.98 124.965 100.98C116.432 100.98 108.422 103.249 101.486 107.226C95.1305 110.87 86.7311 110.87 80.3752 107.226C73.4401 103.249 65.4292 100.98 56.8962 100.98C48.3633 100.98 40.3524 103.249 33.4173 107.226C29.9918 109.19 25.9728 110.096 22 109.943M159 139C155.311 139 151.622 138.089 148.444 136.267C141.509 132.29 133.498 130.02 124.965 130.02C116.432 130.02 108.422 132.29 101.486 136.267C95.1305 139.911 86.7311 139.911 80.3752 136.267C73.4401 132.29 65.4292 130.02 56.8962 130.02C48.3633 130.02 40.3524 132.29 33.4173 136.267C29.9918 138.231 25.9728 139.136 22 138.983" stroke="url(#paint0_linear_103:54)" stroke-width="13" stroke-linecap="square" stroke-linejoin="round"/>
<defs>
<linearGradient id="paint0_linear_103:54" x1="90.5" y1="34.8296" x2="90.5" y2="113.192" gradientUnits="userSpaceOnUse">
<stop stop-color="#FBFBFB"/>
<stop offset="1" stop-color="#E0E0E0"/>
</linearGradient>
</defs>
</svg>
