<svg width="180" height="180" viewBox="0 0 180 180" fill="none" xmlns="http://www.w3.org/2000/svg">
<path d="M158 50.9796C154.311 50.9796 150.622 50.0684 147.444 48.2461C140.509 44.2694 132.498 42 123.965 42C115.432 42 107.422 44.2694 100.486 48.2461C94.1305 51.8907 85.7311 51.8907 79.3752 48.2461C72.4401 44.2694 64.4292 42 55.8962 42C47.3633 42 39.3524 44.2694 32.4173 48.2461C28.9918 50.2104 24.9728 51.116 21 50.963M158 80.0204C154.311 80.0204 150.622 79.1093 147.444 77.2869C140.509 73.3102 132.498 71.0408 123.965 71.0408C115.432 71.0408 107.422 73.3102 100.486 77.2869C94.1305 80.9316 85.7311 80.9316 79.3752 77.2869C72.4401 73.3102 64.4292 71.0408 55.8962 71.0408C47.3633 71.0408 39.3524 73.3102 32.4173 77.2869C28.9918 79.2512 24.9728 80.1568 21 80.0038M158 109.959C154.311 109.959 150.622 109.048 147.444 107.226C140.509 103.249 132.498 100.98 123.965 100.98C115.432 100.98 107.422 103.249 100.486 107.226C94.1305 110.87 85.7311 110.87 79.3752 107.226C72.4401 103.249 64.4292 100.98 55.8962 100.98C47.3633 100.98 39.3524 103.249 32.4173 107.226C28.9918 109.19 24.9728 110.096 21 109.943M158 139C154.311 139 150.622 138.089 147.444 136.267C140.509 132.29 132.498 130.02 123.965 130.02C115.432 130.02 107.422 132.29 100.486 136.267C94.1305 139.911 85.7311 139.911 79.3752 136.267C72.4401 132.29 64.4292 130.02 55.8962 130.02C47.3633 130.02 39.3524 132.29 32.4173 136.267C28.9918 138.231 24.9728 139.136 21 138.983" stroke="url(#paint0_linear_103:63)" stroke-width="13" stroke-linecap="square" stroke-linejoin="round"/>
<defs>
<linearGradient id="paint0_linear_103:63" x1="89.5" y1="34.8296" x2="89.5" y2="113.192" gradientUnits="userSpaceOnUse">
<stop stop-color="#C8DBFB"/>
<stop offset="1" stop-color="#95B6EC"/>
</linearGradient>
</defs>
</svg>
