<svg width="24" height="24" viewBox="0 0 24 24" fill="none" xmlns="http://www.w3.org/2000/svg">
<g clip-path="url(#clip0_387_170)">
<path d="M14.5 10C16.9853 10 19 7.98528 19 5.5C19 3.01472 16.9853 1 14.5 1C12.0147 1 10 3.01472 10 5.5C10 7.98528 12.0147 10 14.5 10Z" fill="url(#paint0_linear_387_170)"/>
<path d="M8.5 7H17.5C19.9853 7 22 9.01472 22 11.5C22 13.9853 19.9853 16 17.5 16H8.5V7Z" fill="url(#paint1_linear_387_170)"/>
<circle cx="8.5" cy="9.5" r="6.5" fill="url(#paint2_linear_387_170)"/>
<mask id="mask0_387_170" style="mask-type:alpha" maskUnits="userSpaceOnUse" x="2" y="3" width="20" height="13">
<path fill-rule="evenodd" clip-rule="evenodd" d="M14.5018 7C13.5223 4.65105 11.2039 3 8.5 3C4.91015 3 2 5.91015 2 9.5C2 13.0899 4.91015 16 8.5 16H17.5C19.9853 16 22 13.9853 22 11.5C22 9.01472 19.9853 7 17.5 7H14.5018Z" fill="white"/>
<path fill-rule="evenodd" clip-rule="evenodd" d="M14.5018 7C13.5223 4.65105 11.2039 3 8.5 3C4.91015 3 2 5.91015 2 9.5C2 13.0899 4.91015 16 8.5 16H17.5C19.9853 16 22 13.9853 22 11.5C22 9.01472 19.9853 7 17.5 7H14.5018Z" fill="url(#paint3_linear_387_170)"/>
</mask>
<g mask="url(#mask0_387_170)">
<g filter="url(#filter0_d_387_170)">
<circle cx="8.5" cy="9.5" r="6.5" fill="url(#paint4_linear_387_170)"/>
</g>
</g>
<circle cx="8.75" cy="18.25" r="1.16667" fill="url(#paint5_linear_387_170)" stroke="url(#paint6_linear_387_170)" stroke-width="0.333333"/>
<circle cx="15.25" cy="18.25" r="1.16667" fill="url(#paint7_linear_387_170)" stroke="url(#paint8_linear_387_170)" stroke-width="0.333333"/>
<circle cx="12" cy="21.25" r="1.16667" fill="url(#paint9_linear_387_170)" stroke="url(#paint10_linear_387_170)" stroke-width="0.333333"/>
</g>
<defs>
<filter id="filter0_d_387_170" x="-1.5" y="0" width="21" height="21" filterUnits="userSpaceOnUse" color-interpolation-filters="sRGB">
<feFlood flood-opacity="0" result="BackgroundImageFix"/>
<feColorMatrix in="SourceAlpha" type="matrix" values="0 0 0 0 0 0 0 0 0 0 0 0 0 0 0 0 0 0 127 0" result="hardAlpha"/>
<feOffset dx="0.5" dy="1"/>
<feGaussianBlur stdDeviation="2"/>
<feComposite in2="hardAlpha" operator="out"/>
<feColorMatrix type="matrix" values="0 0 0 0 0 0 0 0 0 0 0 0 0 0 0 0 0 0 0.12 0"/>
<feBlend mode="multiply" in2="BackgroundImageFix" result="effect1_dropShadow_387_170"/>
<feBlend mode="normal" in="SourceGraphic" in2="effect1_dropShadow_387_170" result="shape"/>
</filter>
<linearGradient id="paint0_linear_387_170" x1="14.5" y1="1" x2="14.5" y2="10" gradientUnits="userSpaceOnUse">
<stop stop-color="#FDC33B"/>
<stop offset="1" stop-color="#FCB13A"/>
</linearGradient>
<linearGradient id="paint1_linear_387_170" x1="15.25" y1="7" x2="15.25" y2="16" gradientUnits="userSpaceOnUse">
<stop stop-color="#FAFAFA"/>
<stop offset="1" stop-color="#E0E0E0"/>
</linearGradient>
<linearGradient id="paint2_linear_387_170" x1="8.5" y1="3" x2="8.5" y2="16" gradientUnits="userSpaceOnUse">
<stop stop-color="#FAFAFA"/>
<stop offset="1" stop-color="#E0E0E0"/>
</linearGradient>
<linearGradient id="paint3_linear_387_170" x1="12" y1="10" x2="12" y2="16" gradientUnits="userSpaceOnUse">
<stop stop-color="white"/>
<stop offset="1" stop-color="white" stop-opacity="0"/>
</linearGradient>
<linearGradient id="paint4_linear_387_170" x1="8.5" y1="3" x2="8.5" y2="16" gradientUnits="userSpaceOnUse">
<stop stop-color="#FAFAFA"/>
<stop offset="1" stop-color="#E0E0E0"/>
</linearGradient>
<linearGradient id="paint5_linear_387_170" x1="8.75" y1="17.25" x2="8.75" y2="19.25" gradientUnits="userSpaceOnUse">
<stop stop-color="#FAFAFA"/>
<stop offset="1" stop-color="#E0E0E0"/>
</linearGradient>
<linearGradient id="paint6_linear_387_170" x1="8.75" y1="17.25" x2="8.75" y2="19.25" gradientUnits="userSpaceOnUse">
<stop stop-color="#FAFAFA"/>
<stop offset="1" stop-color="#E0E0E0"/>
</linearGradient>
<linearGradient id="paint7_linear_387_170" x1="15.25" y1="17.25" x2="15.25" y2="19.25" gradientUnits="userSpaceOnUse">
<stop stop-color="#FAFAFA"/>
<stop offset="1" stop-color="#E0E0E0"/>
</linearGradient>
<linearGradient id="paint8_linear_387_170" x1="15.25" y1="17.25" x2="15.25" y2="19.25" gradientUnits="userSpaceOnUse">
<stop stop-color="#FAFAFA"/>
<stop offset="1" stop-color="#E0E0E0"/>
</linearGradient>
<linearGradient id="paint9_linear_387_170" x1="12" y1="20.25" x2="12" y2="22.25" gradientUnits="userSpaceOnUse">
<stop stop-color="#FAFAFA"/>
<stop offset="1" stop-color="#E0E0E0"/>
</linearGradient>
<linearGradient id="paint10_linear_387_170" x1="12" y1="20.25" x2="12" y2="22.25" gradientUnits="userSpaceOnUse">
<stop stop-color="#FAFAFA"/>
<stop offset="1" stop-color="#E0E0E0"/>
</linearGradient>
<clipPath id="clip0_387_170">
<rect width="24" height="24" fill="white"/>
</clipPath>
</defs>
</svg>
