<svg width="24" height="24" viewBox="0 0 24 24" fill="none" xmlns="http://www.w3.org/2000/svg">
<path d="M8.25 9.5H17.75C20.5114 9.5 22.75 11.7386 22.75 14.5C22.75 17.2614 20.5114 19.5 17.75 19.5H8.25V9.5Z" fill="url(#paint0_linear_379_2243)"/>
<circle cx="8.25" cy="12.25" r="7.25" fill="url(#paint1_linear_379_2243)"/>
<mask id="mask0_379_2243" style="mask-type:alpha" maskUnits="userSpaceOnUse" x="1" y="5" width="22" height="15">
<path fill-rule="evenodd" clip-rule="evenodd" d="M14.9603 9.5C13.877 6.85959 11.2807 5 8.25 5C4.24594 5 1 8.24594 1 12.25C1 16.2541 4.24594 19.5 8.25 19.5H17.75C20.5114 19.5 22.75 17.2614 22.75 14.5C22.75 11.7386 20.5114 9.5 17.75 9.5H14.9603Z" fill="white"/>
<path fill-rule="evenodd" clip-rule="evenodd" d="M14.9603 9.5C13.877 6.85959 11.2807 5 8.25 5C4.24594 5 1 8.24594 1 12.25C1 16.2541 4.24594 19.5 8.25 19.5H17.75C20.5114 19.5 22.75 17.2614 22.75 14.5C22.75 11.7386 20.5114 9.5 17.75 9.5H14.9603Z" fill="url(#paint2_linear_379_2243)"/>
</mask>
<g mask="url(#mask0_379_2243)">
<g filter="url(#filter0_d_379_2243)">
<circle cx="8.25" cy="12.25" r="7.25" fill="url(#paint3_linear_379_2243)"/>
</g>
</g>
<defs>
<filter id="filter0_d_379_2243" x="-2.5" y="2" width="22.5" height="22.5" filterUnits="userSpaceOnUse" color-interpolation-filters="sRGB">
<feFlood flood-opacity="0" result="BackgroundImageFix"/>
<feColorMatrix in="SourceAlpha" type="matrix" values="0 0 0 0 0 0 0 0 0 0 0 0 0 0 0 0 0 0 127 0" result="hardAlpha"/>
<feOffset dx="0.5" dy="1"/>
<feGaussianBlur stdDeviation="2"/>
<feComposite in2="hardAlpha" operator="out"/>
<feColorMatrix type="matrix" values="0 0 0 0 0 0 0 0 0 0 0 0 0 0 0 0 0 0 0.12 0"/>
<feBlend mode="multiply" in2="BackgroundImageFix" result="effect1_dropShadow_379_2243"/>
<feBlend mode="normal" in="SourceGraphic" in2="effect1_dropShadow_379_2243" result="shape"/>
</filter>
<linearGradient id="paint0_linear_379_2243" x1="15.5" y1="9.5" x2="15.5" y2="19.5" gradientUnits="userSpaceOnUse">
<stop stop-color="#FAFAFA"/>
<stop offset="1" stop-color="#E0E0E0"/>
</linearGradient>
<linearGradient id="paint1_linear_379_2243" x1="8.25" y1="5" x2="8.25" y2="19.5" gradientUnits="userSpaceOnUse">
<stop stop-color="#FAFAFA"/>
<stop offset="1" stop-color="#E0E0E0"/>
</linearGradient>
<linearGradient id="paint2_linear_379_2243" x1="12.125" y1="12.8125" x2="12.125" y2="19.5" gradientUnits="userSpaceOnUse">
<stop stop-color="white"/>
<stop offset="1" stop-color="white" stop-opacity="0"/>
</linearGradient>
<linearGradient id="paint3_linear_379_2243" x1="8.25" y1="5" x2="8.25" y2="19.5" gradientUnits="userSpaceOnUse">
<stop stop-color="#FAFAFA"/>
<stop offset="1" stop-color="#E0E0E0"/>
</linearGradient>
</defs>
</svg>
