<svg width="180" height="181" viewBox="0 0 180 181" fill="none" xmlns="http://www.w3.org/2000/svg">
<path d="M146.045 61.3007C144.787 61.4414 143.508 61.5137 142.212 61.5137C123.375 61.5137 108.105 46.2437 108.105 27.4072C108.105 26.2573 108.162 25.1207 108.273 24C91.2412 25.905 78 40.3529 78 57.8935C78 76.73 93.27 92 112.107 92C129.793 92 144.335 78.5375 146.045 61.3007Z" fill="url(#paint0_linear_103:24)"/>
<path d="M15 90.5C15 117.838 37.0142 140 64.17 140H130.723C149.102 140 164 125.002 164 106.5C164 87.9985 149.102 73 130.723 73H110.179C103.156 54.2985 85.2059 41 64.17 41C37.0142 41 15 63.1619 15 90.5Z" fill="url(#paint1_linear_103:24)"/>
<path d="M15 90.5C15 117.838 37.0142 140 64.17 140H130.723C149.102 140 164 125.002 164 106.5C164 87.9985 149.102 73 130.723 73H110.179C103.156 54.2985 85.2059 41 64.17 41C37.0142 41 15 63.1619 15 90.5Z" fill="url(#paint2_linear_103:24)"/>
<mask id="mask0_103:24" style="mask-type:alpha" maskUnits="userSpaceOnUse" x="64" y="73" width="100" height="67">
<path d="M64.1699 139.67C91.3258 139.67 113.34 117.656 113.34 90.5C113.34 84.3801 112.222 78.5213 110.179 73.1167H130.723C149.101 73.1167 164 88.0152 164 106.393C164 124.772 149.101 139.67 130.723 139.67H64.1699Z" fill="black"/>
</mask>
<g mask="url(#mask0_103:24)">
<g opacity="0.3" filter="url(#filter0_dddddd_103:24)">
<circle cx="64.17" cy="90.5" r="49.17" fill="#C4C4C4" fill-opacity="0.01"/>
</g>
</g>
<defs>
<filter id="filter0_dddddd_103:24" x="14.7846" y="41.1743" width="127.548" height="130.711" filterUnits="userSpaceOnUse" color-interpolation-filters="sRGB">
<feFlood flood-opacity="0" result="BackgroundImageFix"/>
<feColorMatrix in="SourceAlpha" type="matrix" values="0 0 0 0 0 0 0 0 0 0 0 0 0 0 0 0 0 0 127 0" result="hardAlpha"/>
<feOffset dx="0.296163" dy="0.35584"/>
<feGaussianBlur stdDeviation="0.255787"/>
<feColorMatrix type="matrix" values="0 0 0 0 0 0 0 0 0 0 0 0 0 0 0 0 0 0 0.0144444 0"/>
<feBlend mode="normal" in2="BackgroundImageFix" result="effect1_dropShadow_103:24"/>
<feColorMatrix in="SourceAlpha" type="matrix" values="0 0 0 0 0 0 0 0 0 0 0 0 0 0 0 0 0 0 127 0" result="hardAlpha"/>
<feOffset dx="1.30312" dy="1.5657"/>
<feGaussianBlur stdDeviation="0.52963"/>
<feColorMatrix type="matrix" values="0 0 0 0 0 0 0 0 0 0 0 0 0 0 0 0 0 0 0.0235556 0"/>
<feBlend mode="normal" in2="effect1_dropShadow_103:24" result="effect2_dropShadow_103:24"/>
<feColorMatrix in="SourceAlpha" type="matrix" values="0 0 0 0 0 0 0 0 0 0 0 0 0 0 0 0 0 0 127 0" result="hardAlpha"/>
<feOffset dx="3.19856" dy="3.84307"/>
<feGaussianBlur stdDeviation="1.05625"/>
<feColorMatrix type="matrix" values="0 0 0 0 0 0 0 0 0 0 0 0 0 0 0 0 0 0 0.03 0"/>
<feBlend mode="normal" in2="effect2_dropShadow_103:24" result="effect3_dropShadow_103:24"/>
<feColorMatrix in="SourceAlpha" type="matrix" values="0 0 0 0 0 0 0 0 0 0 0 0 0 0 0 0 0 0 127 0" result="hardAlpha"/>
<feOffset dx="6.16019" dy="7.40148"/>
<feGaussianBlur stdDeviation="2.07037"/>
<feColorMatrix type="matrix" values="0 0 0 0 0 0 0 0 0 0 0 0 0 0 0 0 0 0 0.0364444 0"/>
<feBlend mode="normal" in2="effect3_dropShadow_103:24" result="effect4_dropShadow_103:24"/>
<feColorMatrix in="SourceAlpha" type="matrix" values="0 0 0 0 0 0 0 0 0 0 0 0 0 0 0 0 0 0 127 0" result="hardAlpha"/>
<feOffset dx="10.3657" dy="12.4544"/>
<feGaussianBlur stdDeviation="3.80671"/>
<feColorMatrix type="matrix" values="0 0 0 0 0 0 0 0 0 0 0 0 0 0 0 0 0 0 0.0455556 0"/>
<feBlend mode="normal" in2="effect4_dropShadow_103:24" result="effect5_dropShadow_103:24"/>
<feColorMatrix in="SourceAlpha" type="matrix" values="0 0 0 0 0 0 0 0 0 0 0 0 0 0 0 0 0 0 127 0" result="hardAlpha"/>
<feOffset dx="15.9928" dy="19.2154"/>
<feGaussianBlur stdDeviation="6.5"/>
<feColorMatrix type="matrix" values="0 0 0 0 0 0 0 0 0 0 0 0 0 0 0 0 0 0 0.06 0"/>
<feBlend mode="normal" in2="effect5_dropShadow_103:24" result="effect6_dropShadow_103:24"/>
<feBlend mode="normal" in="SourceGraphic" in2="effect6_dropShadow_103:24" result="shape"/>
</filter>
<linearGradient id="paint0_linear_103:24" x1="112.022" y1="24" x2="112.022" y2="96.08" gradientUnits="userSpaceOnUse">
<stop stop-color="#CBDDFC"/>
<stop offset="1" stop-color="#91B3EB"/>
</linearGradient>
<linearGradient id="paint1_linear_103:24" x1="89.5" y1="41" x2="89.5" y2="140" gradientUnits="userSpaceOnUse">
<stop stop-color="white"/>
<stop offset="1" stop-color="#EAEAEA"/>
</linearGradient>
<linearGradient id="paint2_linear_103:24" x1="89.5" y1="41" x2="89.5" y2="140" gradientUnits="userSpaceOnUse">
<stop stop-color="white"/>
<stop offset="1" stop-color="#EAEAEA"/>
</linearGradient>
</defs>
</svg>
