<svg width="181" height="181" viewBox="0 0 181 181" fill="none" xmlns="http://www.w3.org/2000/svg">
<circle cx="109" cy="63" r="34" fill="url(#paint0_linear_103:18)"/>
<path d="M16 90.5C16 117.838 38.0142 140 65.17 140H131.723C150.102 140 165 125.002 165 106.5C165 87.9985 150.102 73 131.723 73H111.179C104.156 54.2985 86.2059 41 65.17 41C38.0142 41 16 63.1619 16 90.5Z" fill="url(#paint1_linear_103:18)"/>
<path d="M16 90.5C16 117.838 38.0142 140 65.17 140H131.723C150.102 140 165 125.002 165 106.5C165 87.9985 150.102 73 131.723 73H111.179C104.156 54.2985 86.2059 41 65.17 41C38.0142 41 16 63.1619 16 90.5Z" fill="url(#paint2_linear_103:18)"/>
<mask id="mask0_103:18" style="mask-type:alpha" maskUnits="userSpaceOnUse" x="65" y="73" width="100" height="67">
<path d="M65.1699 139.67C92.3258 139.67 114.34 117.656 114.34 90.5C114.34 84.3801 113.222 78.5213 111.179 73.1167H131.723C150.101 73.1167 165 88.0152 165 106.393C165 124.772 150.101 139.67 131.723 139.67H65.1699Z" fill="black"/>
</mask>
<g mask="url(#mask0_103:18)">
<g opacity="0.3" filter="url(#filter0_dddddd_103:18)">
<circle cx="65.17" cy="90.5" r="49.17" fill="#C4C4C4" fill-opacity="0.01"/>
</g>
</g>
<defs>
<filter id="filter0_dddddd_103:18" x="15.7846" y="41.1743" width="127.548" height="130.711" filterUnits="userSpaceOnUse" color-interpolation-filters="sRGB">
<feFlood flood-opacity="0" result="BackgroundImageFix"/>
<feColorMatrix in="SourceAlpha" type="matrix" values="0 0 0 0 0 0 0 0 0 0 0 0 0 0 0 0 0 0 127 0" result="hardAlpha"/>
<feOffset dx="0.296163" dy="0.35584"/>
<feGaussianBlur stdDeviation="0.255787"/>
<feColorMatrix type="matrix" values="0 0 0 0 0 0 0 0 0 0 0 0 0 0 0 0 0 0 0.0144444 0"/>
<feBlend mode="normal" in2="BackgroundImageFix" result="effect1_dropShadow_103:18"/>
<feColorMatrix in="SourceAlpha" type="matrix" values="0 0 0 0 0 0 0 0 0 0 0 0 0 0 0 0 0 0 127 0" result="hardAlpha"/>
<feOffset dx="1.30312" dy="1.5657"/>
<feGaussianBlur stdDeviation="0.52963"/>
<feColorMatrix type="matrix" values="0 0 0 0 0 0 0 0 0 0 0 0 0 0 0 0 0 0 0.0235556 0"/>
<feBlend mode="normal" in2="effect1_dropShadow_103:18" result="effect2_dropShadow_103:18"/>
<feColorMatrix in="SourceAlpha" type="matrix" values="0 0 0 0 0 0 0 0 0 0 0 0 0 0 0 0 0 0 127 0" result="hardAlpha"/>
<feOffset dx="3.19856" dy="3.84307"/>
<feGaussianBlur stdDeviation="1.05625"/>
<feColorMatrix type="matrix" values="0 0 0 0 0 0 0 0 0 0 0 0 0 0 0 0 0 0 0.03 0"/>
<feBlend mode="normal" in2="effect2_dropShadow_103:18" result="effect3_dropShadow_103:18"/>
<feColorMatrix in="SourceAlpha" type="matrix" values="0 0 0 0 0 0 0 0 0 0 0 0 0 0 0 0 0 0 127 0" result="hardAlpha"/>
<feOffset dx="6.16019" dy="7.40148"/>
<feGaussianBlur stdDeviation="2.07037"/>
<feColorMatrix type="matrix" values="0 0 0 0 0 0 0 0 0 0 0 0 0 0 0 0 0 0 0.0364444 0"/>
<feBlend mode="normal" in2="effect3_dropShadow_103:18" result="effect4_dropShadow_103:18"/>
<feColorMatrix in="SourceAlpha" type="matrix" values="0 0 0 0 0 0 0 0 0 0 0 0 0 0 0 0 0 0 127 0" result="hardAlpha"/>
<feOffset dx="10.3657" dy="12.4544"/>
<feGaussianBlur stdDeviation="3.80671"/>
<feColorMatrix type="matrix" values="0 0 0 0 0 0 0 0 0 0 0 0 0 0 0 0 0 0 0.0455556 0"/>
<feBlend mode="normal" in2="effect4_dropShadow_103:18" result="effect5_dropShadow_103:18"/>
<feColorMatrix in="SourceAlpha" type="matrix" values="0 0 0 0 0 0 0 0 0 0 0 0 0 0 0 0 0 0 127 0" result="hardAlpha"/>
<feOffset dx="15.9928" dy="19.2154"/>
<feGaussianBlur stdDeviation="6.5"/>
<feColorMatrix type="matrix" values="0 0 0 0 0 0 0 0 0 0 0 0 0 0 0 0 0 0 0.06 0"/>
<feBlend mode="normal" in2="effect5_dropShadow_103:18" result="effect6_dropShadow_103:18"/>
<feBlend mode="normal" in="SourceGraphic" in2="effect6_dropShadow_103:18" result="shape"/>
</filter>
<linearGradient id="paint0_linear_103:18" x1="109" y1="29" x2="109" y2="101.08" gradientUnits="userSpaceOnUse">
<stop stop-color="#FDC33B"/>
<stop offset="1" stop-color="#FCB13A"/>
</linearGradient>
<linearGradient id="paint1_linear_103:18" x1="90.5" y1="41" x2="90.5" y2="140" gradientUnits="userSpaceOnUse">
<stop stop-color="white"/>
<stop offset="1" stop-color="#EAEAEA"/>
</linearGradient>
<linearGradient id="paint2_linear_103:18" x1="90.5" y1="41" x2="90.5" y2="140" gradientUnits="userSpaceOnUse">
<stop stop-color="white"/>
<stop offset="1" stop-color="#EAEAEA"/>
</linearGradient>
</defs>
</svg>
