<svg width="181" height="180" viewBox="0 0 181 180" fill="none" xmlns="http://www.w3.org/2000/svg">
<circle cx="91" cy="89" r="75" fill="url(#paint0_linear_103:28)"/>
<path d="M54 126.5C54 147.211 70.5476 164 90.96 164H140.987C154.801 164 166 152.638 166 138.621C166 124.605 154.801 113.242 140.987 113.242H125.544C120.265 99.0746 106.772 89 90.96 89C70.5476 89 54 105.789 54 126.5Z" fill="url(#paint1_linear_103:28)"/>
<path d="M54 126.5C54 147.211 70.5476 164 90.96 164H140.987C154.801 164 166 152.638 166 138.621C166 124.605 154.801 113.242 140.987 113.242H125.544C120.265 99.0746 106.772 89 90.96 89C70.5476 89 54 105.789 54 126.5Z" fill="url(#paint2_linear_103:28)"/>
<mask id="mask0_103:28" style="mask-type:alpha" maskUnits="userSpaceOnUse" x="90" y="113" width="76" height="51">
<path d="M90.7261 163.751C111.202 163.751 127.801 147.152 127.801 126.676C127.801 122.062 126.958 117.644 125.418 113.569H140.909C154.766 113.569 166 124.802 166 138.66C166 152.517 154.766 163.751 140.909 163.751H90.7261Z" fill="black"/>
</mask>
<g mask="url(#mask0_103:28)">
<g opacity="0.3" filter="url(#filter0_dddddd_103:28)">
<circle cx="90.726" cy="126.676" r="37.0751" fill="#C4C4C4" fill-opacity="0.01"/>
</g>
</g>
<defs>
<filter id="filter0_dddddd_103:28" x="53.4355" y="89.4452" width="103.358" height="106.521" filterUnits="userSpaceOnUse" color-interpolation-filters="sRGB">
<feFlood flood-opacity="0" result="BackgroundImageFix"/>
<feColorMatrix in="SourceAlpha" type="matrix" values="0 0 0 0 0 0 0 0 0 0 0 0 0 0 0 0 0 0 127 0" result="hardAlpha"/>
<feOffset dx="0.296163" dy="0.35584"/>
<feGaussianBlur stdDeviation="0.255787"/>
<feColorMatrix type="matrix" values="0 0 0 0 0 0 0 0 0 0 0 0 0 0 0 0 0 0 0.0144444 0"/>
<feBlend mode="normal" in2="BackgroundImageFix" result="effect1_dropShadow_103:28"/>
<feColorMatrix in="SourceAlpha" type="matrix" values="0 0 0 0 0 0 0 0 0 0 0 0 0 0 0 0 0 0 127 0" result="hardAlpha"/>
<feOffset dx="1.30312" dy="1.5657"/>
<feGaussianBlur stdDeviation="0.52963"/>
<feColorMatrix type="matrix" values="0 0 0 0 0 0 0 0 0 0 0 0 0 0 0 0 0 0 0.0235556 0"/>
<feBlend mode="normal" in2="effect1_dropShadow_103:28" result="effect2_dropShadow_103:28"/>
<feColorMatrix in="SourceAlpha" type="matrix" values="0 0 0 0 0 0 0 0 0 0 0 0 0 0 0 0 0 0 127 0" result="hardAlpha"/>
<feOffset dx="3.19856" dy="3.84307"/>
<feGaussianBlur stdDeviation="1.05625"/>
<feColorMatrix type="matrix" values="0 0 0 0 0 0 0 0 0 0 0 0 0 0 0 0 0 0 0.03 0"/>
<feBlend mode="normal" in2="effect2_dropShadow_103:28" result="effect3_dropShadow_103:28"/>
<feColorMatrix in="SourceAlpha" type="matrix" values="0 0 0 0 0 0 0 0 0 0 0 0 0 0 0 0 0 0 127 0" result="hardAlpha"/>
<feOffset dx="6.16019" dy="7.40148"/>
<feGaussianBlur stdDeviation="2.07037"/>
<feColorMatrix type="matrix" values="0 0 0 0 0 0 0 0 0 0 0 0 0 0 0 0 0 0 0.0364444 0"/>
<feBlend mode="normal" in2="effect3_dropShadow_103:28" result="effect4_dropShadow_103:28"/>
<feColorMatrix in="SourceAlpha" type="matrix" values="0 0 0 0 0 0 0 0 0 0 0 0 0 0 0 0 0 0 127 0" result="hardAlpha"/>
<feOffset dx="10.3657" dy="12.4544"/>
<feGaussianBlur stdDeviation="3.80671"/>
<feColorMatrix type="matrix" values="0 0 0 0 0 0 0 0 0 0 0 0 0 0 0 0 0 0 0.0455556 0"/>
<feBlend mode="normal" in2="effect4_dropShadow_103:28" result="effect5_dropShadow_103:28"/>
<feColorMatrix in="SourceAlpha" type="matrix" values="0 0 0 0 0 0 0 0 0 0 0 0 0 0 0 0 0 0 127 0" result="hardAlpha"/>
<feOffset dx="15.9928" dy="19.2154"/>
<feGaussianBlur stdDeviation="6.5"/>
<feColorMatrix type="matrix" values="0 0 0 0 0 0 0 0 0 0 0 0 0 0 0 0 0 0 0.06 0"/>
<feBlend mode="normal" in2="effect5_dropShadow_103:28" result="effect6_dropShadow_103:28"/>
<feBlend mode="normal" in="SourceGraphic" in2="effect6_dropShadow_103:28" result="shape"/>
</filter>
<linearGradient id="paint0_linear_103:28" x1="91" y1="14" x2="91" y2="173" gradientUnits="userSpaceOnUse">
<stop stop-color="#FDC33B"/>
<stop offset="1" stop-color="#FCB13A"/>
</linearGradient>
<linearGradient id="paint1_linear_103:28" x1="110" y1="89" x2="110" y2="164" gradientUnits="userSpaceOnUse">
<stop stop-color="white"/>
<stop offset="1" stop-color="#EAEAEA"/>
</linearGradient>
<linearGradient id="paint2_linear_103:28" x1="110" y1="89" x2="110" y2="164" gradientUnits="userSpaceOnUse">
<stop stop-color="white"/>
<stop offset="1" stop-color="#EAEAEA"/>
</linearGradient>
</defs>
</svg>
