<svg width="180" height="180" viewBox="0 0 180 180" fill="none" xmlns="http://www.w3.org/2000/svg">
<path d="M165.099 96.281C162.323 96.5914 159.502 96.7508 156.643 96.7508C115.092 96.7508 81.4085 63.067 81.4085 21.5159C81.4085 18.9793 81.534 16.4721 81.7792 14C44.2085 18.2021 15 50.0726 15 88.7651C15 130.316 48.6838 164 90.2349 164C129.249 164 161.328 134.303 165.099 96.281Z" fill="url(#paint0_linear_103:40)"/>
<path d="M53 126.5C53 147.211 69.5476 164 89.96 164H139.987C153.801 164 165 152.638 165 138.621C165 124.605 153.801 113.242 139.987 113.242H124.544C119.265 99.0746 105.772 89 89.96 89C69.5476 89 53 105.789 53 126.5Z" fill="url(#paint1_linear_103:40)"/>
<path d="M53 126.5C53 147.211 69.5476 164 89.96 164H139.987C153.801 164 165 152.638 165 138.621C165 124.605 153.801 113.242 139.987 113.242H124.544C119.265 99.0746 105.772 89 89.96 89C69.5476 89 53 105.789 53 126.5Z" fill="url(#paint2_linear_103:40)"/>
<mask id="mask0_103:40" style="mask-type:alpha" maskUnits="userSpaceOnUse" x="89" y="113" width="76" height="51">
<path d="M89.7261 163.751C110.202 163.751 126.801 147.152 126.801 126.676C126.801 122.062 125.958 117.644 124.418 113.569H139.909C153.766 113.569 165 124.802 165 138.66C165 152.517 153.766 163.751 139.909 163.751H89.7261Z" fill="black"/>
</mask>
<g mask="url(#mask0_103:40)">
<g opacity="0.3" filter="url(#filter0_dddddd_103:40)">
<circle cx="89.726" cy="126.676" r="37.0751" fill="#C4C4C4" fill-opacity="0.01"/>
</g>
</g>
<defs>
<filter id="filter0_dddddd_103:40" x="52.4355" y="89.4452" width="103.358" height="106.521" filterUnits="userSpaceOnUse" color-interpolation-filters="sRGB">
<feFlood flood-opacity="0" result="BackgroundImageFix"/>
<feColorMatrix in="SourceAlpha" type="matrix" values="0 0 0 0 0 0 0 0 0 0 0 0 0 0 0 0 0 0 127 0" result="hardAlpha"/>
<feOffset dx="0.296163" dy="0.35584"/>
<feGaussianBlur stdDeviation="0.255787"/>
<feColorMatrix type="matrix" values="0 0 0 0 0 0 0 0 0 0 0 0 0 0 0 0 0 0 0.0144444 0"/>
<feBlend mode="normal" in2="BackgroundImageFix" result="effect1_dropShadow_103:40"/>
<feColorMatrix in="SourceAlpha" type="matrix" values="0 0 0 0 0 0 0 0 0 0 0 0 0 0 0 0 0 0 127 0" result="hardAlpha"/>
<feOffset dx="1.30312" dy="1.5657"/>
<feGaussianBlur stdDeviation="0.52963"/>
<feColorMatrix type="matrix" values="0 0 0 0 0 0 0 0 0 0 0 0 0 0 0 0 0 0 0.0235556 0"/>
<feBlend mode="normal" in2="effect1_dropShadow_103:40" result="effect2_dropShadow_103:40"/>
<feColorMatrix in="SourceAlpha" type="matrix" values="0 0 0 0 0 0 0 0 0 0 0 0 0 0 0 0 0 0 127 0" result="hardAlpha"/>
<feOffset dx="3.19856" dy="3.84307"/>
<feGaussianBlur stdDeviation="1.05625"/>
<feColorMatrix type="matrix" values="0 0 0 0 0 0 0 0 0 0 0 0 0 0 0 0 0 0 0.03 0"/>
<feBlend mode="normal" in2="effect2_dropShadow_103:40" result="effect3_dropShadow_103:40"/>
<feColorMatrix in="SourceAlpha" type="matrix" values="0 0 0 0 0 0 0 0 0 0 0 0 0 0 0 0 0 0 127 0" result="hardAlpha"/>
<feOffset dx="6.16019" dy="7.40148"/>
<feGaussianBlur stdDeviation="2.07037"/>
<feColorMatrix type="matrix" values="0 0 0 0 0 0 0 0 0 0 0 0 0 0 0 0 0 0 0.0364444 0"/>
<feBlend mode="normal" in2="effect3_dropShadow_103:40" result="effect4_dropShadow_103:40"/>
<feColorMatrix in="SourceAlpha" type="matrix" values="0 0 0 0 0 0 0 0 0 0 0 0 0 0 0 0 0 0 127 0" result="hardAlpha"/>
<feOffset dx="10.3657" dy="12.4544"/>
<feGaussianBlur stdDeviation="3.80671"/>
<feColorMatrix type="matrix" values="0 0 0 0 0 0 0 0 0 0 0 0 0 0 0 0 0 0 0.0455556 0"/>
<feBlend mode="normal" in2="effect4_dropShadow_103:40" result="effect5_dropShadow_103:40"/>
<feColorMatrix in="SourceAlpha" type="matrix" values="0 0 0 0 0 0 0 0 0 0 0 0 0 0 0 0 0 0 127 0" result="hardAlpha"/>
<feOffset dx="15.9928" dy="19.2154"/>
<feGaussianBlur stdDeviation="6.5"/>
<feColorMatrix type="matrix" values="0 0 0 0 0 0 0 0 0 0 0 0 0 0 0 0 0 0 0.06 0"/>
<feBlend mode="normal" in2="effect5_dropShadow_103:40" result="effect6_dropShadow_103:40"/>
<feBlend mode="normal" in="SourceGraphic" in2="effect6_dropShadow_103:40" result="shape"/>
</filter>
<linearGradient id="paint0_linear_103:40" x1="90.0496" y1="14" x2="90.0496" y2="173" gradientUnits="userSpaceOnUse">
<stop stop-color="#CBDDFC"/>
<stop offset="1" stop-color="#91B3EB"/>
</linearGradient>
<linearGradient id="paint1_linear_103:40" x1="109" y1="89" x2="109" y2="164" gradientUnits="userSpaceOnUse">
<stop stop-color="white"/>
<stop offset="1" stop-color="#EAEAEA"/>
</linearGradient>
<linearGradient id="paint2_linear_103:40" x1="109" y1="89" x2="109" y2="164" gradientUnits="userSpaceOnUse">
<stop stop-color="white"/>
<stop offset="1" stop-color="#EAEAEA"/>
</linearGradient>
</defs>
</svg>
