<svg width="24" height="24" viewBox="0 0 24 24" fill="none" xmlns="http://www.w3.org/2000/svg">
<path d="M12 22C17.5228 22 22 17.5228 22 12C22 6.47715 17.5228 2 12 2C6.47715 2 2 6.47715 2 12C2 17.5228 6.47715 22 12 22Z" fill="url(#paint0_linear_380_2292)"/>
<path d="M12 15H18.5C20.433 15 22 16.567 22 18.5C22 20.433 20.433 22 18.5 22H12V15Z" fill="url(#paint1_linear_380_2292)"/>
<circle cx="12" cy="17" r="5" fill="url(#paint2_linear_380_2292)"/>
<mask id="mask0_380_2292" style="mask-type:alpha" maskUnits="userSpaceOnUse" x="7" y="12" width="15" height="10">
<path fill-rule="evenodd" clip-rule="evenodd" d="M16.584 15C15.8124 13.2341 14.0503 12 12 12C9.23858 12 7 14.2386 7 17C7 19.7614 9.23858 22 12 22H18.5C20.433 22 22 20.433 22 18.5C22 16.567 20.433 15 18.5 15H16.584Z" fill="white"/>
<path fill-rule="evenodd" clip-rule="evenodd" d="M16.584 15C15.8124 13.2341 14.0503 12 12 12C9.23858 12 7 14.2386 7 17C7 19.7614 9.23858 22 12 22H18.5C20.433 22 22 20.433 22 18.5C22 16.567 20.433 15 18.5 15H16.584Z" fill="url(#paint3_linear_380_2292)"/>
</mask>
<g mask="url(#mask0_380_2292)">
<g filter="url(#filter0_d_380_2292)">
<circle cx="12" cy="17" r="5" fill="url(#paint4_linear_380_2292)"/>
</g>
</g>
<defs>
<filter id="filter0_d_380_2292" x="3.5" y="9" width="18" height="18" filterUnits="userSpaceOnUse" color-interpolation-filters="sRGB">
<feFlood flood-opacity="0" result="BackgroundImageFix"/>
<feColorMatrix in="SourceAlpha" type="matrix" values="0 0 0 0 0 0 0 0 0 0 0 0 0 0 0 0 0 0 127 0" result="hardAlpha"/>
<feOffset dx="0.5" dy="1"/>
<feGaussianBlur stdDeviation="2"/>
<feComposite in2="hardAlpha" operator="out"/>
<feColorMatrix type="matrix" values="0 0 0 0 0 0 0 0 0 0 0 0 0 0 0 0 0 0 0.12 0"/>
<feBlend mode="multiply" in2="BackgroundImageFix" result="effect1_dropShadow_380_2292"/>
<feBlend mode="normal" in="SourceGraphic" in2="effect1_dropShadow_380_2292" result="shape"/>
</filter>
<linearGradient id="paint0_linear_380_2292" x1="12" y1="2" x2="12" y2="22" gradientUnits="userSpaceOnUse">
<stop stop-color="#FDC33B"/>
<stop offset="1" stop-color="#FCB13A"/>
</linearGradient>
<linearGradient id="paint1_linear_380_2292" x1="17" y1="15" x2="17" y2="22" gradientUnits="userSpaceOnUse">
<stop stop-color="#FAFAFA"/>
<stop offset="1" stop-color="#E0E0E0"/>
</linearGradient>
<linearGradient id="paint2_linear_380_2292" x1="12" y1="12" x2="12" y2="22" gradientUnits="userSpaceOnUse">
<stop stop-color="#FAFAFA"/>
<stop offset="1" stop-color="#E0E0E0"/>
</linearGradient>
<linearGradient id="paint3_linear_380_2292" x1="15" y1="17.5" x2="15" y2="22" gradientUnits="userSpaceOnUse">
<stop stop-color="white"/>
<stop offset="1" stop-color="white" stop-opacity="0"/>
</linearGradient>
<linearGradient id="paint4_linear_380_2292" x1="12" y1="12" x2="12" y2="22" gradientUnits="userSpaceOnUse">
<stop stop-color="#FAFAFA"/>
<stop offset="1" stop-color="#E0E0E0"/>
</linearGradient>
</defs>
</svg>
