<svg width="24" height="25" viewBox="0 0 24 25" fill="none" xmlns="http://www.w3.org/2000/svg">
<g clip-path="url(#clip0_403_470)">
<path d="M18.9797 6.92789C18.8383 6.94129 18.695 6.94815 18.55 6.94815C16.0647 6.94815 14.05 4.93343 14.05 2.44815C14.05 2.3032 14.0569 2.15985 14.0703 2.0184C11.7866 2.23476 10 4.15782 10 6.49815C10 8.98343 12.0147 10.9981 14.5 10.9981C16.8403 10.9981 18.7634 9.21159 18.9797 6.92789Z" fill="url(#paint0_linear_403_470)"/>
<path d="M8.5 7.99814H17.5C19.9853 7.99814 22 10.0129 22 12.4981C22 14.9834 19.9853 16.9981 17.5 16.9981H8.5V7.99814Z" fill="url(#paint1_linear_403_470)"/>
<circle cx="8.5" cy="10.4981" r="6.5" fill="url(#paint2_linear_403_470)"/>
<mask id="mask0_403_470" style="mask-type:alpha" maskUnits="userSpaceOnUse" x="2" y="3" width="20" height="14">
<path fill-rule="evenodd" clip-rule="evenodd" d="M14.5018 7.99814C13.5223 5.64919 11.2039 3.99814 8.5 3.99814C4.91015 3.99814 2 6.90829 2 10.4981C2 14.088 4.91015 16.9981 8.5 16.9981H17.5C19.9853 16.9981 22 14.9834 22 12.4981C22 10.0129 19.9853 7.99814 17.5 7.99814H14.5018Z" fill="white"/>
<path fill-rule="evenodd" clip-rule="evenodd" d="M14.5018 7.99814C13.5223 5.64919 11.2039 3.99814 8.5 3.99814C4.91015 3.99814 2 6.90829 2 10.4981C2 14.088 4.91015 16.9981 8.5 16.9981H17.5C19.9853 16.9981 22 14.9834 22 12.4981C22 10.0129 19.9853 7.99814 17.5 7.99814H14.5018Z" fill="url(#paint3_linear_403_470)"/>
</mask>
<g mask="url(#mask0_403_470)">
<g filter="url(#filter0_d_403_470)">
<circle cx="8.5" cy="10.4981" r="6.5" fill="url(#paint4_linear_403_470)"/>
</g>
</g>
<path d="M13.4787 22.3909C13.4787 23.1838 12.8166 23.8265 12 23.8265C11.1834 23.8265 10.5213 23.1838 10.5213 22.3909C10.5213 21.293 12 20.3315 12 20.3315C12 20.3315 13.4787 21.293 13.4787 22.3909Z" fill="url(#paint5_linear_403_470)"/>
<path d="M17.1573 19.6825C17.1573 20.4755 16.4953 21.1182 15.6787 21.1182C14.862 21.1182 14.2 20.4755 14.2 19.6825C14.2 18.5847 15.6787 17.6231 15.6787 17.6231C15.6787 17.6231 17.1573 18.5847 17.1573 19.6825Z" fill="url(#paint6_linear_403_470)"/>
<path d="M10.1573 19.6825C10.1573 20.4755 9.49529 21.1182 8.67865 21.1182C7.86203 21.1182 7.2 20.4755 7.2 19.6825C7.2 18.5847 8.67865 17.6231 8.67865 17.6231C8.67865 17.6231 10.1573 18.5847 10.1573 19.6825Z" fill="url(#paint7_linear_403_470)"/>
</g>
<defs>
<filter id="filter0_d_403_470" x="-1.5" y="0.998138" width="21" height="21" filterUnits="userSpaceOnUse" color-interpolation-filters="sRGB">
<feFlood flood-opacity="0" result="BackgroundImageFix"/>
<feColorMatrix in="SourceAlpha" type="matrix" values="0 0 0 0 0 0 0 0 0 0 0 0 0 0 0 0 0 0 127 0" result="hardAlpha"/>
<feOffset dx="0.5" dy="1"/>
<feGaussianBlur stdDeviation="2"/>
<feComposite in2="hardAlpha" operator="out"/>
<feColorMatrix type="matrix" values="0 0 0 0 0 0 0 0 0 0 0 0 0 0 0 0 0 0 0.12 0"/>
<feBlend mode="multiply" in2="BackgroundImageFix" result="effect1_dropShadow_403_470"/>
<feBlend mode="normal" in="SourceGraphic" in2="effect1_dropShadow_403_470" result="shape"/>
</filter>
<linearGradient id="paint0_linear_403_470" x1="14.4899" y1="2.0184" x2="14.4899" y2="10.9981" gradientUnits="userSpaceOnUse">
<stop stop-color="#CBDDFC"/>
<stop offset="1" stop-color="#91B3EB"/>
</linearGradient>
<linearGradient id="paint1_linear_403_470" x1="15.25" y1="7.99814" x2="15.25" y2="16.9981" gradientUnits="userSpaceOnUse">
<stop stop-color="#FAFAFA"/>
<stop offset="1" stop-color="#E0E0E0"/>
</linearGradient>
<linearGradient id="paint2_linear_403_470" x1="8.5" y1="3.99814" x2="8.5" y2="16.9981" gradientUnits="userSpaceOnUse">
<stop stop-color="#FAFAFA"/>
<stop offset="1" stop-color="#E0E0E0"/>
</linearGradient>
<linearGradient id="paint3_linear_403_470" x1="12" y1="10.9981" x2="12" y2="16.9981" gradientUnits="userSpaceOnUse">
<stop stop-color="white"/>
<stop offset="1" stop-color="white" stop-opacity="0"/>
</linearGradient>
<linearGradient id="paint4_linear_403_470" x1="8.5" y1="3.99814" x2="8.5" y2="16.9981" gradientUnits="userSpaceOnUse">
<stop stop-color="#FAFAFA"/>
<stop offset="1" stop-color="#E0E0E0"/>
</linearGradient>
<linearGradient id="paint5_linear_403_470" x1="12" y1="20.3315" x2="12" y2="23.8265" gradientUnits="userSpaceOnUse">
<stop stop-color="#59BDFF"/>
<stop offset="1" stop-color="#0E9EFE"/>
</linearGradient>
<linearGradient id="paint6_linear_403_470" x1="15.6787" y1="17.6231" x2="15.6787" y2="21.1182" gradientUnits="userSpaceOnUse">
<stop stop-color="#59BDFF"/>
<stop offset="1" stop-color="#0E9EFE"/>
</linearGradient>
<linearGradient id="paint7_linear_403_470" x1="8.67866" y1="17.6231" x2="8.67866" y2="21.1182" gradientUnits="userSpaceOnUse">
<stop stop-color="#59BDFF"/>
<stop offset="1" stop-color="#0E9EFE"/>
</linearGradient>
<clipPath id="clip0_403_470">
<rect width="24" height="24" fill="white" transform="translate(0 0.998138)"/>
</clipPath>
</defs>
</svg>
