<svg width="24" height="24" viewBox="0 0 24 24" fill="none" xmlns="http://www.w3.org/2000/svg">
<g clip-path="url(#clip0_404_484)">
<path d="M18.9797 5.92976C18.8383 5.94316 18.695 5.95001 18.55 5.95001C16.0647 5.95001 14.05 3.93529 14.05 1.45001C14.05 1.30506 14.0569 1.16171 14.0703 1.02026C11.7866 1.23662 10 3.15968 10 5.50001C10 7.98529 12.0147 10 14.5 10C16.8403 10 18.7634 8.21345 18.9797 5.92976Z" fill="url(#paint0_linear_404_484)"/>
<path d="M8.5 7H17.5C19.9853 7 22 9.01472 22 11.5C22 13.9853 19.9853 16 17.5 16H8.5V7Z" fill="url(#paint1_linear_404_484)"/>
<circle cx="8.5" cy="9.5" r="6.5" fill="url(#paint2_linear_404_484)"/>
<mask id="mask0_404_484" style="mask-type:alpha" maskUnits="userSpaceOnUse" x="2" y="3" width="20" height="13">
<path fill-rule="evenodd" clip-rule="evenodd" d="M14.5018 7C13.5223 4.65105 11.2039 3 8.5 3C4.91015 3 2 5.91015 2 9.5C2 13.0899 4.91015 16 8.5 16H17.5C19.9853 16 22 13.9853 22 11.5C22 9.01472 19.9853 7 17.5 7H14.5018Z" fill="white"/>
<path fill-rule="evenodd" clip-rule="evenodd" d="M14.5018 7C13.5223 4.65105 11.2039 3 8.5 3C4.91015 3 2 5.91015 2 9.5C2 13.0899 4.91015 16 8.5 16H17.5C19.9853 16 22 13.9853 22 11.5C22 9.01472 19.9853 7 17.5 7H14.5018Z" fill="url(#paint3_linear_404_484)"/>
</mask>
<g mask="url(#mask0_404_484)">
<g filter="url(#filter0_d_404_484)">
<circle cx="8.5" cy="9.5" r="6.5" fill="url(#paint4_linear_404_484)"/>
</g>
</g>
<path d="M8.64419 19.1747C8.64419 19.8837 8.05227 20.4583 7.32209 20.4583C6.59194 20.4583 6 19.8837 6 19.1747C6 18.1931 7.32209 17.3333 7.32209 17.3333C7.32209 17.3333 8.64419 18.1931 8.64419 19.1747Z" fill="url(#paint5_linear_404_484)"/>
<path d="M11.6442 21.6713C11.6442 22.3803 11.0523 22.955 10.3221 22.955C9.59194 22.955 9 22.3803 9 21.6713C9 20.6897 10.3221 19.83 10.3221 19.83C10.3221 19.83 11.6442 20.6897 11.6442 21.6713Z" fill="url(#paint6_linear_404_484)"/>
<path d="M14.6442 19.1747C14.6442 19.8837 14.0523 20.4583 13.3221 20.4583C12.5919 20.4583 12 19.8837 12 19.1747C12 18.1931 13.3221 17.3333 13.3221 17.3333C13.3221 17.3333 14.6442 18.1931 14.6442 19.1747Z" fill="url(#paint7_linear_404_484)"/>
<path d="M17.6442 21.6713C17.6442 22.3803 17.0523 22.955 16.3221 22.955C15.5919 22.955 15 22.3803 15 21.6713C15 20.6897 16.3221 19.83 16.3221 19.83C16.3221 19.83 17.6442 20.6897 17.6442 21.6713Z" fill="url(#paint8_linear_404_484)"/>
</g>
<defs>
<filter id="filter0_d_404_484" x="-1.5" y="0" width="21" height="21" filterUnits="userSpaceOnUse" color-interpolation-filters="sRGB">
<feFlood flood-opacity="0" result="BackgroundImageFix"/>
<feColorMatrix in="SourceAlpha" type="matrix" values="0 0 0 0 0 0 0 0 0 0 0 0 0 0 0 0 0 0 127 0" result="hardAlpha"/>
<feOffset dx="0.5" dy="1"/>
<feGaussianBlur stdDeviation="2"/>
<feComposite in2="hardAlpha" operator="out"/>
<feColorMatrix type="matrix" values="0 0 0 0 0 0 0 0 0 0 0 0 0 0 0 0 0 0 0.12 0"/>
<feBlend mode="multiply" in2="BackgroundImageFix" result="effect1_dropShadow_404_484"/>
<feBlend mode="normal" in="SourceGraphic" in2="effect1_dropShadow_404_484" result="shape"/>
</filter>
<linearGradient id="paint0_linear_404_484" x1="14.4899" y1="1.02026" x2="14.4899" y2="10" gradientUnits="userSpaceOnUse">
<stop stop-color="#CBDDFC"/>
<stop offset="1" stop-color="#91B3EB"/>
</linearGradient>
<linearGradient id="paint1_linear_404_484" x1="15.25" y1="7" x2="15.25" y2="16" gradientUnits="userSpaceOnUse">
<stop stop-color="#FAFAFA"/>
<stop offset="1" stop-color="#E0E0E0"/>
</linearGradient>
<linearGradient id="paint2_linear_404_484" x1="8.5" y1="3" x2="8.5" y2="16" gradientUnits="userSpaceOnUse">
<stop stop-color="#FAFAFA"/>
<stop offset="1" stop-color="#E0E0E0"/>
</linearGradient>
<linearGradient id="paint3_linear_404_484" x1="12" y1="10" x2="12" y2="16" gradientUnits="userSpaceOnUse">
<stop stop-color="white"/>
<stop offset="1" stop-color="white" stop-opacity="0"/>
</linearGradient>
<linearGradient id="paint4_linear_404_484" x1="8.5" y1="3" x2="8.5" y2="16" gradientUnits="userSpaceOnUse">
<stop stop-color="#FAFAFA"/>
<stop offset="1" stop-color="#E0E0E0"/>
</linearGradient>
<linearGradient id="paint5_linear_404_484" x1="7.3221" y1="17.3333" x2="7.3221" y2="20.4583" gradientUnits="userSpaceOnUse">
<stop stop-color="#59BDFF"/>
<stop offset="1" stop-color="#0E9EFE"/>
</linearGradient>
<linearGradient id="paint6_linear_404_484" x1="10.3221" y1="19.83" x2="10.3221" y2="22.955" gradientUnits="userSpaceOnUse">
<stop stop-color="#59BDFF"/>
<stop offset="1" stop-color="#0E9EFE"/>
</linearGradient>
<linearGradient id="paint7_linear_404_484" x1="13.3221" y1="17.3333" x2="13.3221" y2="20.4583" gradientUnits="userSpaceOnUse">
<stop stop-color="#59BDFF"/>
<stop offset="1" stop-color="#0E9EFE"/>
</linearGradient>
<linearGradient id="paint8_linear_404_484" x1="16.3221" y1="19.83" x2="16.3221" y2="22.955" gradientUnits="userSpaceOnUse">
<stop stop-color="#59BDFF"/>
<stop offset="1" stop-color="#0E9EFE"/>
</linearGradient>
<clipPath id="clip0_404_484">
<rect width="24" height="24" fill="white"/>
</clipPath>
</defs>
</svg>
