<svg width="24" height="24" viewBox="0 0 24 24" fill="none" xmlns="http://www.w3.org/2000/svg">
<g clip-path="url(#clip0_395_426)">
<path d="M18.9797 5.92976C18.8383 5.94316 18.695 5.95001 18.55 5.95001C16.0647 5.95001 14.05 3.93529 14.05 1.45001C14.05 1.30506 14.0569 1.16171 14.0703 1.02026C11.7866 1.23662 10 3.15968 10 5.50001C10 7.98529 12.0147 10 14.5 10C16.8403 10 18.7634 8.21345 18.9797 5.92976Z" fill="url(#paint0_linear_395_426)"/>
<path d="M8.5 7H17.5C19.9853 7 22 9.01472 22 11.5C22 13.9853 19.9853 16 17.5 16H8.5V7Z" fill="url(#paint1_linear_395_426)"/>
<circle cx="8.5" cy="9.5" r="6.5" fill="url(#paint2_linear_395_426)"/>
<mask id="mask0_395_426" style="mask-type:alpha" maskUnits="userSpaceOnUse" x="2" y="3" width="20" height="13">
<path fill-rule="evenodd" clip-rule="evenodd" d="M14.5018 7C13.5223 4.65105 11.2039 3 8.5 3C4.91015 3 2 5.91015 2 9.5C2 13.0899 4.91015 16 8.5 16H17.5C19.9853 16 22 13.9853 22 11.5C22 9.01472 19.9853 7 17.5 7H14.5018Z" fill="white"/>
<path fill-rule="evenodd" clip-rule="evenodd" d="M14.5018 7C13.5223 4.65105 11.2039 3 8.5 3C4.91015 3 2 5.91015 2 9.5C2 13.0899 4.91015 16 8.5 16H17.5C19.9853 16 22 13.9853 22 11.5C22 9.01472 19.9853 7 17.5 7H14.5018Z" fill="url(#paint3_linear_395_426)"/>
</mask>
<g mask="url(#mask0_395_426)">
<g filter="url(#filter0_d_395_426)">
<circle cx="8.5" cy="9.5" r="6.5" fill="url(#paint4_linear_395_426)"/>
</g>
</g>
<path fill-rule="evenodd" clip-rule="evenodd" d="M7 16.54C7.20711 16.54 7.375 16.7079 7.375 16.915V17.5988L7.9672 17.2569C8.14656 17.1534 8.3759 17.2148 8.47946 17.3942C8.58301 17.5735 8.52156 17.8029 8.3422 17.9064L7.75 18.2483L8.3422 18.5902C8.52156 18.6938 8.58301 18.9231 8.47946 19.1025C8.3759 19.2819 8.14656 19.3433 7.9672 19.2398L7.375 18.8979V19.5817C7.375 19.7888 7.20711 19.9567 7 19.9567C6.79289 19.9567 6.625 19.7888 6.625 19.5817V18.8979L6.0328 19.2398C5.85344 19.3433 5.62409 19.2819 5.52054 19.1025C5.41699 18.9232 5.47844 18.6938 5.6578 18.5903L6.25 18.2483L5.6578 17.9064C5.47844 17.8029 5.41699 17.5735 5.52054 17.3942C5.62409 17.2148 5.85344 17.1534 6.0328 17.2569L6.625 17.5988V16.915C6.625 16.7079 6.79289 16.54 7 16.54Z" fill="url(#paint5_linear_395_426)"/>
<path d="M11.7273 21.3927C11.7273 22.1857 11.0653 22.8284 10.2487 22.8284C9.43204 22.8284 8.77 22.1857 8.77 21.3927C8.77 20.2949 10.2487 19.3333 10.2487 19.3333C10.2487 19.3333 11.7273 20.2949 11.7273 21.3927Z" fill="url(#paint6_linear_395_426)"/>
<path d="M15.4773 18.6844C15.4773 19.4773 14.8153 20.1201 13.9987 20.1201C13.182 20.1201 12.52 19.4773 12.52 18.6844C12.52 17.5865 13.9987 16.625 13.9987 16.625C13.9987 16.625 15.4773 17.5865 15.4773 18.6844Z" fill="url(#paint7_linear_395_426)"/>
<path fill-rule="evenodd" clip-rule="evenodd" d="M17.2498 19.415C17.4569 19.415 17.6248 19.5829 17.6248 19.79V20.4738L18.217 20.1319C18.3963 20.0284 18.6257 20.0898 18.7292 20.2692C18.8328 20.4485 18.7713 20.6779 18.592 20.7814L17.9998 21.1233L18.592 21.4652C18.7713 21.5688 18.8328 21.7981 18.7292 21.9775C18.6257 22.1569 18.3963 22.2183 18.217 22.1148L17.6248 21.7729V22.4567C17.6248 22.6638 17.4569 22.8317 17.2498 22.8317C17.0427 22.8317 16.8748 22.6638 16.8748 22.4567V21.7729L16.2826 22.1148C16.1032 22.2183 15.8739 22.1569 15.7703 21.9775C15.6668 21.7982 15.7282 21.5688 15.9076 21.4653L16.4998 21.1233L15.9076 20.7814C15.7282 20.6779 15.6668 20.4485 15.7703 20.2692C15.8739 20.0898 16.1032 20.0284 16.2826 20.1319L16.8748 20.4738V19.79C16.8748 19.5829 17.0427 19.415 17.2498 19.415Z" fill="url(#paint8_linear_395_426)"/>
</g>
<defs>
<filter id="filter0_d_395_426" x="-1.5" y="0" width="21" height="21" filterUnits="userSpaceOnUse" color-interpolation-filters="sRGB">
<feFlood flood-opacity="0" result="BackgroundImageFix"/>
<feColorMatrix in="SourceAlpha" type="matrix" values="0 0 0 0 0 0 0 0 0 0 0 0 0 0 0 0 0 0 127 0" result="hardAlpha"/>
<feOffset dx="0.5" dy="1"/>
<feGaussianBlur stdDeviation="2"/>
<feComposite in2="hardAlpha" operator="out"/>
<feColorMatrix type="matrix" values="0 0 0 0 0 0 0 0 0 0 0 0 0 0 0 0 0 0 0.12 0"/>
<feBlend mode="multiply" in2="BackgroundImageFix" result="effect1_dropShadow_395_426"/>
<feBlend mode="normal" in="SourceGraphic" in2="effect1_dropShadow_395_426" result="shape"/>
</filter>
<linearGradient id="paint0_linear_395_426" x1="14.4899" y1="1.02026" x2="14.4899" y2="10" gradientUnits="userSpaceOnUse">
<stop stop-color="#CBDDFC"/>
<stop offset="1" stop-color="#91B3EB"/>
</linearGradient>
<linearGradient id="paint1_linear_395_426" x1="15.25" y1="7" x2="15.25" y2="16" gradientUnits="userSpaceOnUse">
<stop stop-color="#FAFAFA"/>
<stop offset="1" stop-color="#E0E0E0"/>
</linearGradient>
<linearGradient id="paint2_linear_395_426" x1="8.5" y1="3" x2="8.5" y2="16" gradientUnits="userSpaceOnUse">
<stop stop-color="#FAFAFA"/>
<stop offset="1" stop-color="#E0E0E0"/>
</linearGradient>
<linearGradient id="paint3_linear_395_426" x1="12" y1="10" x2="12" y2="16" gradientUnits="userSpaceOnUse">
<stop stop-color="white"/>
<stop offset="1" stop-color="white" stop-opacity="0"/>
</linearGradient>
<linearGradient id="paint4_linear_395_426" x1="8.5" y1="3" x2="8.5" y2="16" gradientUnits="userSpaceOnUse">
<stop stop-color="#FAFAFA"/>
<stop offset="1" stop-color="#E0E0E0"/>
</linearGradient>
<linearGradient id="paint5_linear_395_426" x1="7" y1="16.54" x2="7" y2="19.9567" gradientUnits="userSpaceOnUse">
<stop stop-color="#FAFAFA"/>
<stop offset="1" stop-color="#E0E0E0"/>
</linearGradient>
<linearGradient id="paint6_linear_395_426" x1="10.2487" y1="19.3333" x2="10.2487" y2="22.8284" gradientUnits="userSpaceOnUse">
<stop stop-color="#59BDFF"/>
<stop offset="1" stop-color="#0E9EFE"/>
</linearGradient>
<linearGradient id="paint7_linear_395_426" x1="13.9987" y1="16.625" x2="13.9987" y2="20.1201" gradientUnits="userSpaceOnUse">
<stop stop-color="#59BDFF"/>
<stop offset="1" stop-color="#0E9EFE"/>
</linearGradient>
<linearGradient id="paint8_linear_395_426" x1="17.2498" y1="19.415" x2="17.2498" y2="22.8317" gradientUnits="userSpaceOnUse">
<stop stop-color="#FAFAFA"/>
<stop offset="1" stop-color="#E0E0E0"/>
</linearGradient>
<clipPath id="clip0_395_426">
<rect width="24" height="24" fill="white"/>
</clipPath>
</defs>
</svg>
