<svg width="24" height="24" viewBox="0 0 24 24" fill="none" xmlns="http://www.w3.org/2000/svg">
<mask id="mask0_388_739" style="mask-type:alpha" maskUnits="userSpaceOnUse" x="1" y="3" width="22" height="18">
<path fill-rule="evenodd" clip-rule="evenodd" d="M19.9661 12.5832C21.5455 11.6207 22.5 10.3687 22.5 9C22.5 5.96243 17.799 3.5 12 3.5C6.20101 3.5 1.5 5.96243 1.5 9C1.5 10.3687 2.4545 11.6207 4.03386 12.5832C4.01145 12.7204 4 12.8595 4 13C4 14.2174 4.85936 15.3218 6.25546 16.1319C6.32687 16.9932 7.09429 17.7603 8.27163 18.2839C8.25734 18.3549 8.25 18.427 8.25 18.5C8.25 19.6046 9.92893 20.5 12 20.5C14.0711 20.5 15.75 19.6046 15.75 18.5C15.75 18.427 15.7427 18.3549 15.7284 18.2839C16.9057 17.7603 17.6731 16.9932 17.7445 16.1319C19.1406 15.3218 20 14.2174 20 13C20 12.8595 19.9885 12.7204 19.9661 12.5832Z" fill="white"/>
</mask>
<g mask="url(#mask0_388_739)">
<g filter="url(#filter0_d_388_739)">
<ellipse cx="12" cy="18.5" rx="3.75" ry="2" fill="url(#paint0_linear_388_739)"/>
</g>
<g filter="url(#filter1_d_388_739)">
<ellipse cx="12" cy="16" rx="5.75" ry="3" fill="url(#paint1_linear_388_739)"/>
</g>
<g filter="url(#filter2_d_388_739)">
<ellipse cx="12" cy="13" rx="8" ry="4.5" fill="url(#paint2_linear_388_739)"/>
</g>
<g filter="url(#filter3_d_388_739)">
<ellipse cx="12" cy="9" rx="10.5" ry="5.5" fill="url(#paint3_linear_388_739)"/>
</g>
</g>
<defs>
<filter id="filter0_d_388_739" x="7.25" y="15.75" width="9.5" height="6" filterUnits="userSpaceOnUse" color-interpolation-filters="sRGB">
<feFlood flood-opacity="0" result="BackgroundImageFix"/>
<feColorMatrix in="SourceAlpha" type="matrix" values="0 0 0 0 0 0 0 0 0 0 0 0 0 0 0 0 0 0 127 0" result="hardAlpha"/>
<feOffset dy="0.25"/>
<feGaussianBlur stdDeviation="0.5"/>
<feComposite in2="hardAlpha" operator="out"/>
<feColorMatrix type="matrix" values="0 0 0 0 0 0 0 0 0 0 0 0 0 0 0 0 0 0 0.12 0"/>
<feBlend mode="multiply" in2="BackgroundImageFix" result="effect1_dropShadow_388_739"/>
<feBlend mode="normal" in="SourceGraphic" in2="effect1_dropShadow_388_739" result="shape"/>
</filter>
<filter id="filter1_d_388_739" x="5.25" y="12.25" width="13.5" height="8" filterUnits="userSpaceOnUse" color-interpolation-filters="sRGB">
<feFlood flood-opacity="0" result="BackgroundImageFix"/>
<feColorMatrix in="SourceAlpha" type="matrix" values="0 0 0 0 0 0 0 0 0 0 0 0 0 0 0 0 0 0 127 0" result="hardAlpha"/>
<feOffset dy="0.25"/>
<feGaussianBlur stdDeviation="0.5"/>
<feComposite in2="hardAlpha" operator="out"/>
<feColorMatrix type="matrix" values="0 0 0 0 0 0 0 0 0 0 0 0 0 0 0 0 0 0 0.12 0"/>
<feBlend mode="multiply" in2="BackgroundImageFix" result="effect1_dropShadow_388_739"/>
<feBlend mode="normal" in="SourceGraphic" in2="effect1_dropShadow_388_739" result="shape"/>
</filter>
<filter id="filter2_d_388_739" x="3" y="7.75" width="18" height="11" filterUnits="userSpaceOnUse" color-interpolation-filters="sRGB">
<feFlood flood-opacity="0" result="BackgroundImageFix"/>
<feColorMatrix in="SourceAlpha" type="matrix" values="0 0 0 0 0 0 0 0 0 0 0 0 0 0 0 0 0 0 127 0" result="hardAlpha"/>
<feOffset dy="0.25"/>
<feGaussianBlur stdDeviation="0.5"/>
<feComposite in2="hardAlpha" operator="out"/>
<feColorMatrix type="matrix" values="0 0 0 0 0 0 0 0 0 0 0 0 0 0 0 0 0 0 0.12 0"/>
<feBlend mode="multiply" in2="BackgroundImageFix" result="effect1_dropShadow_388_739"/>
<feBlend mode="normal" in="SourceGraphic" in2="effect1_dropShadow_388_739" result="shape"/>
</filter>
<filter id="filter3_d_388_739" x="0.5" y="2.75" width="23" height="13" filterUnits="userSpaceOnUse" color-interpolation-filters="sRGB">
<feFlood flood-opacity="0" result="BackgroundImageFix"/>
<feColorMatrix in="SourceAlpha" type="matrix" values="0 0 0 0 0 0 0 0 0 0 0 0 0 0 0 0 0 0 127 0" result="hardAlpha"/>
<feOffset dy="0.25"/>
<feGaussianBlur stdDeviation="0.5"/>
<feComposite in2="hardAlpha" operator="out"/>
<feColorMatrix type="matrix" values="0 0 0 0 0 0 0 0 0 0 0 0 0 0 0 0 0 0 0.12 0"/>
<feBlend mode="multiply" in2="BackgroundImageFix" result="effect1_dropShadow_388_739"/>
<feBlend mode="normal" in="SourceGraphic" in2="effect1_dropShadow_388_739" result="shape"/>
</filter>
<linearGradient id="paint0_linear_388_739" x1="12" y1="16.5" x2="12" y2="20.5" gradientUnits="userSpaceOnUse">
<stop stop-color="#FAFAFA"/>
<stop offset="1" stop-color="#E0E0E0"/>
</linearGradient>
<linearGradient id="paint1_linear_388_739" x1="12" y1="13" x2="12" y2="19" gradientUnits="userSpaceOnUse">
<stop stop-color="#FAFAFA"/>
<stop offset="1" stop-color="#E0E0E0"/>
</linearGradient>
<linearGradient id="paint2_linear_388_739" x1="12" y1="8.5" x2="12" y2="17.5" gradientUnits="userSpaceOnUse">
<stop stop-color="#FAFAFA"/>
<stop offset="1" stop-color="#E0E0E0"/>
</linearGradient>
<linearGradient id="paint3_linear_388_739" x1="12" y1="3.5" x2="12" y2="14.5" gradientUnits="userSpaceOnUse">
<stop stop-color="#FAFAFA"/>
<stop offset="1" stop-color="#E0E0E0"/>
</linearGradient>
</defs>
</svg>
