<svg width="24" height="24" viewBox="0 0 24 24" fill="none" xmlns="http://www.w3.org/2000/svg">
<path d="M8.5 7H17.5C19.9853 7 22 9.01472 22 11.5C22 13.9853 19.9853 16 17.5 16H8.5V7Z" fill="url(#paint0_linear_404_594)"/>
<circle cx="8.5" cy="9.5" r="6.5" fill="url(#paint1_linear_404_594)"/>
<mask id="mask0_404_594" style="mask-type:alpha" maskUnits="userSpaceOnUse" x="2" y="3" width="20" height="13">
<path fill-rule="evenodd" clip-rule="evenodd" d="M14.5018 7C13.5223 4.65105 11.2039 3 8.5 3C4.91015 3 2 5.91015 2 9.5C2 13.0899 4.91015 16 8.5 16H17.5C19.9853 16 22 13.9853 22 11.5C22 9.01472 19.9853 7 17.5 7H14.5018Z" fill="white"/>
<path fill-rule="evenodd" clip-rule="evenodd" d="M14.5018 7C13.5223 4.65105 11.2039 3 8.5 3C4.91015 3 2 5.91015 2 9.5C2 13.0899 4.91015 16 8.5 16H17.5C19.9853 16 22 13.9853 22 11.5C22 9.01472 19.9853 7 17.5 7H14.5018Z" fill="url(#paint2_linear_404_594)"/>
</mask>
<g mask="url(#mask0_404_594)">
<g filter="url(#filter0_d_404_594)">
<circle cx="8.5" cy="9.5" r="6.5" fill="url(#paint3_linear_404_594)"/>
</g>
</g>
<path d="M8.89419 19.1747C8.89419 19.8837 8.30227 20.4583 7.57209 20.4583C6.84194 20.4583 6.25 19.8837 6.25 19.1747C6.25 18.1931 7.57209 17.3333 7.57209 17.3333C7.57209 17.3333 8.89419 18.1931 8.89419 19.1747Z" fill="url(#paint4_linear_404_594)"/>
<path d="M11.8942 21.6713C11.8942 22.3803 11.3023 22.955 10.5721 22.955C9.84194 22.955 9.25 22.3803 9.25 21.6713C9.25 20.6897 10.5721 19.83 10.5721 19.83C10.5721 19.83 11.8942 20.6897 11.8942 21.6713Z" fill="url(#paint5_linear_404_594)"/>
<path d="M13.25 19.875L14.875 17.3333H16.875L15.8873 18.875H17.743L13.25 22.875L14.925 19.875L13.25 19.875Z" fill="url(#paint6_linear_404_594)"/>
<defs>
<filter id="filter0_d_404_594" x="-1.5" y="0" width="21" height="21" filterUnits="userSpaceOnUse" color-interpolation-filters="sRGB">
<feFlood flood-opacity="0" result="BackgroundImageFix"/>
<feColorMatrix in="SourceAlpha" type="matrix" values="0 0 0 0 0 0 0 0 0 0 0 0 0 0 0 0 0 0 127 0" result="hardAlpha"/>
<feOffset dx="0.5" dy="1"/>
<feGaussianBlur stdDeviation="2"/>
<feComposite in2="hardAlpha" operator="out"/>
<feColorMatrix type="matrix" values="0 0 0 0 0 0 0 0 0 0 0 0 0 0 0 0 0 0 0.12 0"/>
<feBlend mode="multiply" in2="BackgroundImageFix" result="effect1_dropShadow_404_594"/>
<feBlend mode="normal" in="SourceGraphic" in2="effect1_dropShadow_404_594" result="shape"/>
</filter>
<linearGradient id="paint0_linear_404_594" x1="15.25" y1="7" x2="15.25" y2="16" gradientUnits="userSpaceOnUse">
<stop stop-color="#FAFAFA"/>
<stop offset="1" stop-color="#E0E0E0"/>
</linearGradient>
<linearGradient id="paint1_linear_404_594" x1="8.5" y1="3" x2="8.5" y2="16" gradientUnits="userSpaceOnUse">
<stop stop-color="#FAFAFA"/>
<stop offset="1" stop-color="#E0E0E0"/>
</linearGradient>
<linearGradient id="paint2_linear_404_594" x1="12" y1="10" x2="12" y2="16" gradientUnits="userSpaceOnUse">
<stop stop-color="white"/>
<stop offset="1" stop-color="white" stop-opacity="0"/>
</linearGradient>
<linearGradient id="paint3_linear_404_594" x1="8.5" y1="3" x2="8.5" y2="16" gradientUnits="userSpaceOnUse">
<stop stop-color="#FAFAFA"/>
<stop offset="1" stop-color="#E0E0E0"/>
</linearGradient>
<linearGradient id="paint4_linear_404_594" x1="7.5721" y1="17.3333" x2="7.5721" y2="20.4583" gradientUnits="userSpaceOnUse">
<stop stop-color="#59BDFF"/>
<stop offset="1" stop-color="#0E9EFE"/>
</linearGradient>
<linearGradient id="paint5_linear_404_594" x1="10.5721" y1="19.83" x2="10.5721" y2="22.955" gradientUnits="userSpaceOnUse">
<stop stop-color="#59BDFF"/>
<stop offset="1" stop-color="#0E9EFE"/>
</linearGradient>
<linearGradient id="paint6_linear_404_594" x1="15.4965" y1="17.3333" x2="15.4965" y2="22.875" gradientUnits="userSpaceOnUse">
<stop stop-color="#FDC33B"/>
<stop offset="1" stop-color="#FCB13A"/>
</linearGradient>
</defs>
</svg>
